<?xml version="1.0"?> <svg xmlns="http://www.w3.org/2000/svg" xmlns:android="http://schemas.android.com/apk/res/android" width="24" height="24" viewBox="0 0 24.0 24.0"><path fill="#000000" d="M21.624,11.188h0.571v2.621h-0.571z"/><path fill="#000000" d="M10.716,11.257h2.67v1.185h-2.67z"/><path fill="#000000" d="M10.759,14.037c0,0.553 -0.448,1 -1,1H3.375c-0.552,0 -1,-0.447 -1,-1v-2.876c0,-0.552 0.448,-1 1,-1h6.383c0.552,0 1,0.448 1,1V14.037z"/><path fill="#EB1D24" d="M9.825,13.633c0,0.397 -0.348,0.72 -0.777,0.72H4.086c-0.429,0 -0.777,-0.322 -0.777,-0.72v-2.068c0,-0.397 0.348,-0.719 0.777,-0.719h4.961c0.429,0 0.777,0.322 0.777,0.719V13.633z"/><path fill="#000000" d="M21.69,14.037c0,0.553 -0.448,1 -1,1h-6.384c-0.552,0 -1,-0.447 -1,-1v-2.876c0,-0.552 0.448,-1 1,-1h6.384c0.552,0 1,0.448 1,1V14.037z"/><path fill="#6FCCDD" d="M20.757,13.633c0,0.397 -0.349,0.72 -0.777,0.72h-4.962c-0.429,0 -0.777,-0.322 -0.777,-0.72v-2.068c0,-0.397 0.349,-0.719 0.777,-0.719h4.962c0.429,0 0.777,0.322 0.777,0.719V13.633z"/><path fill="#000000" d="M1.805,11.161h0.571v2.621h-0.571z"/></svg>
