<?xml version="1.0"?> <svg xmlns="http://www.w3.org/2000/svg" xmlns:android="http://schemas.android.com/apk/res/android" width="24" height="24" viewBox="0 0 24.0 24.0"><path fill="#000000" d="M5.174,8.446C5.109,8.73 5.195,9.479 5.895,9.714c0.683,0.23 1.149,0.324 1.851,0.485c1.559,0.357 2.959,0.056 3.076,-0.459c0.118,-0.515 -1.097,-1.018 -2.656,-1.375c-0.713,-0.163 -1.097,-0.295 -1.868,-0.4C5.672,7.881 5.238,8.167 5.174,8.446z"/><path fill="#000000" d="M20.602,13.455c0,0 0.473,-2.479 -0.184,-3.106c-0.658,-0.627 -1.494,-2.15 -1.494,-2.15s-0.807,-0.91 -0.717,-1.925c-0.096,-1.211 -0.537,-2.049 -0.537,-2.049s-0.58,-0.98 -0.998,-1.25S15.4,2.628 15.4,3.345s0.602,1.29 0.747,1.913c0.134,0.577 0.226,1.822 0.226,1.822L15.4,10.618l-1.375,-1.375v9.947c0,0 4.331,-1.194 5.496,-2.27S20.602,13.455 20.602,13.455z"/><path fill="#FFFFFF" stroke="#000000" stroke-width=".5"  d="M6.439,18.975c0,0.553 0.447,1 1,1h7.08c0.553,0 1,-0.447 1,-1V5.323c0,-0.552 -0.447,-1 -1,-1h-7.08c-0.553,0 -1,0.448 -1,1V18.975z"/><path fill="#000000" d="M4.057,11.285c-0.064,0.284 0.021,1.032 0.721,1.268c0.683,0.23 1.151,0.314 1.851,0.485c1.096,0.268 1.845,0.095 1.962,-0.419c0.118,-0.515 -0.597,-1.113 -1.542,-1.415c-0.696,-0.222 -1.097,-0.295 -1.868,-0.4C4.555,10.72 4.121,11.005 4.057,11.285z"/><path fill="#000000" d="M4.01,17.312c0,0.236 0.24,0.814 0.941,0.875c0.686,0.057 1.141,0.047 1.828,0.047c1.529,0 2.408,-0.466 2.408,-0.896c0,-0.428 -0.879,-0.632 -2.408,-0.632c-0.699,0 -1.084,-0.035 -1.826,0.021C4.354,16.774 4.01,17.079 4.01,17.312z"/><path fill="#000000" d="M3.977,14.268c-0.03,0.289 0.146,1.022 0.868,1.172c0.706,0.146 1.181,0.184 1.896,0.258c1.591,0.166 2.944,-0.303 2.999,-0.828s-1.212,-0.877 -2.804,-1.043c-0.727,-0.076 -1.124,-0.161 -1.902,-0.172C4.403,13.646 4.007,13.982 3.977,14.268z"/></svg>
