<?xml version="1.0"?> <svg xmlns="http://www.w3.org/2000/svg" xmlns:android="http://schemas.android.com/apk/res/android" width="24" height="24" viewBox="0 0 24.0 24.0"><path fill="#FFFFFF" stroke="#000000" stroke-width=".5" d="M19.566,8.446c0.064,0.284 -0.021,1.032 -0.721,1.268c-0.683,0.23 -1.149,0.324 -1.851,0.485c-1.559,0.357 -2.959,0.056 -3.076,-0.459c-0.118,-0.515 1.097,-1.018 2.656,-1.375c0.713,-0.163 1.097,-0.295 1.868,-0.4C19.068,7.881 19.502,8.167 19.566,8.446z"/><path fill="#FFFFFF" stroke="#000000" stroke-width=".5" d="M4.139,13.455c0,0 -0.473,-2.479 0.184,-3.106s1.493,-2.15 1.493,-2.15s0.807,-0.91 0.718,-1.925c0.095,-1.211 0.537,-2.049 0.537,-2.049s0.58,-0.98 0.998,-1.25S9.34,2.628 9.34,3.345s-0.603,1.29 -0.748,1.913C8.458,5.835 8.368,7.08 8.368,7.08l0.973,3.538l1.375,-1.375v9.947c0,0 -4.331,-1.194 -5.496,-2.27S4.139,13.455 4.139,13.455z"/><path fill="#000000" d="M18.301,18.975c0,0.553 -0.447,1 -1,1h-7.08c-0.552,0 -1,-0.447 -1,-1V5.323c0,-0.552 0.448,-1 1,-1h7.08c0.553,0 1,0.448 1,1V18.975z"/><path fill="#FFFFFF" stroke="#000000" stroke-width=".5" d="M20.684,11.285c0.064,0.284 -0.021,1.032 -0.721,1.268c-0.683,0.23 -1.151,0.314 -1.851,0.485c-1.096,0.268 -1.845,0.095 -1.962,-0.419c-0.118,-0.515 0.597,-1.113 1.542,-1.415c0.696,-0.222 1.097,-0.295 1.868,-0.4C20.186,10.72 20.619,11.005 20.684,11.285z"/><path fill="#FFFFFF" stroke="#000000" stroke-width=".5" d="M20.73,17.312c0,0.236 -0.24,0.814 -0.941,0.875c-0.686,0.057 -1.141,0.047 -1.828,0.047c-1.529,0 -2.408,-0.466 -2.408,-0.896c0,-0.428 0.879,-0.632 2.408,-0.632c0.699,0 1.084,-0.035 1.826,0.021C20.387,16.774 20.73,17.079 20.73,17.312z"/><path fill="#FFFFFF" stroke="#000000" stroke-width=".5" d="M20.764,14.268c0.03,0.289 -0.146,1.022 -0.868,1.172c-0.706,0.146 -1.181,0.184 -1.896,0.258c-1.591,0.166 -2.944,-0.303 -2.999,-0.828s1.212,-0.877 2.804,-1.043c0.727,-0.076 1.124,-0.161 1.902,-0.172C20.337,13.646 20.733,13.982 20.764,14.268z"/></svg>
