<?xml version="1.0" encoding="utf-8"?>
<!-- Generator: Adobe Illustrator 14.0.0, SVG Export Plug-In  -->
<!DOCTYPE svg PUBLIC "-//W3C//DTD SVG 1.1//EN" "http://www.w3.org/Graphics/SVG/1.1/DTD/svg11.dtd" [
	<!ENTITY ns_flows "http://ns.adobe.com/Flows/1.0/">
]>
<svg version="1.1"
	 xmlns="http://www.w3.org/2000/svg" xmlns:xlink="http://www.w3.org/1999/xlink" xmlns:a="http://ns.adobe.com/AdobeSVGViewerExtensions/3.0/"
	 x="0px" y="0px" width="119px" height="119px" viewBox="0 0 119 119" enable-background="new 0 0 119 119" xml:space="preserve">
<defs>
</defs>
<path fill="none" d="M64.398,82.9l-30.396,30.396c1.149,0.546,2.323,1.046,3.511,1.52L80.06,72.27v43.124
	c1.301-0.479,2.573-1.015,3.83-1.58v-57.79l29.283,29.283c0.567-1.178,1.083-2.385,1.573-3.604L72.399,39.357l43.127,0
	c-0.393-1.088-0.813-2.163-1.266-3.221H54.383L84.858,5.66c-1.152-0.543-2.327-1.043-3.518-1.513L38.722,46.766V3.742
	c-1.3,0.485-2.574,1.023-3.829,1.594v57.674L5.784,33.903c-0.564,1.181-1.079,2.39-1.566,3.612l42.165,42.164H3.509
	c0.392,1.089,0.813,2.164,1.266,3.222H64.398z"/>
<path d="M114.745,81.703c2.758-6.858,4.29-14.34,4.29-22.185c0-7.078-1.242-13.865-3.509-20.162l-43.127,0L114.745,81.703z"/>
<path d="M83.889,113.814c12.8-5.755,23.207-15.887,29.283-28.506L83.889,56.024V113.814z"/>
<path d="M114.261,36.135c-5.734-13.407-16.25-24.276-29.402-30.476L54.383,36.135H114.261z"/>
<path d="M81.34,4.147C74.581,1.481,67.225,0,59.518,0c-7.316,0-14.321,1.327-20.796,3.742v43.023L81.34,4.147z"/>
<path d="M34.893,5.336C22.15,11.137,11.809,21.287,5.784,33.903l29.108,29.108V5.336z"/>
<path d="M4.218,37.515C1.507,44.324,0,51.743,0,59.518c0,7.078,1.242,13.864,3.509,20.161h42.874L4.218,37.515z"/>
<path d="M4.774,82.9c5.709,13.348,16.156,24.183,29.228,30.396L64.398,82.9H4.774z"/>
<path d="M37.513,114.816c6.809,2.712,14.229,4.219,22.005,4.219c7.22,0,14.139-1.288,20.542-3.642V72.27L37.513,114.816z"/>
</svg>
